<svg xmlns="http://www.w3.org/2000/svg" style="display: none;">
  <symbol id="icon-arrow" viewBox="0 0 116 7" stroke="none">
    <path d="M115.08 3.56 112.46.94l-2.61 2.62 2.61 2.61 2.62-2.61ZM.18 4h112.28v-.9H.17V4Z" />
  </symbol>
  <symbol id="icon-book" viewBox="0 0 46 63" stroke="none">
    <path fill-rule="evenodd" clip-rule="evenodd"
      d="M1.62 1.8C.56 3.3.38 7.3.38 29.56c0 24.94.07 26.07 1.59 27.59 1.05 1.06 2.64 1.58 4.76 1.58 2.6 0 3.17.28 3.17 1.54 0 2 1.36 2.81 2.76 1.65.8-.66 1.54-.68 2.69-.07 2.24 1.2 2.48 1.1 2.48-1.13v-1.99H30.4c11.17 0 12.72-.16 13.88-1.45 1.14-1.25 1.32-3.78 1.32-19.03 0-15.1-.17-17.6-1.2-17.6-1 0-1.18 2.08-1.18 13.89v13.88H10.69v-46h32.53v5.55c0 4.4.24 5.55 1.19 5.55.94 0 1.19-1.13 1.19-5.43 0-8.36.87-8.06-22.83-8.06C3.1.03 2.84.06 1.62 1.8Zm6.7 3.79c0 3.1-.07 3.17-2.78 3.17-2.62 0-2.78-.15-2.78-2.64 0-3.23.43-3.7 3.3-3.7 2.1 0 2.25.21 2.25 3.17Zm17.44 3.95c0 2.48-3.45 4.27-7.1 3.68-3.13-.5-5.24.67-2.86 1.58 1.57.6 1.6 2.2.05 3.48-1.57 1.3-1.5 2.61.26 4.79 1.13 1.4 1.93 1.68 3.6 1.26 2.81-.71 4.23-4.12 2.5-6.03-1.53-1.7-1.51-2.11.09-2.73 2.01-.77 3.46 1.03 3.46 4.3 0 2.3-.45 3.28-1.98 4.29a4.04 4.04 0 0 0-1.98 3.3c0 1.95.12 2 4.95 1.76 5.77-.27 6.8-1.75 3.43-4.87-1.54-1.43-2.04-2.67-2.04-5.12 0-3.58.8-4.48 3.23-3.71 1.52.48 1.55.64.4 2.4-1.62 2.46-1.57 3.79.2 5.4 1.83 1.64 3.63 1.66 5.24.06 1.33-1.33 1.73-5.1.54-5.1-1.36 0-1.77-2.66-.52-3.36 2.32-1.3 1.27-2.22-1.93-1.7-3.7.59-7.16-1.19-7.16-3.68 0-.87-.53-1.57-1.19-1.57-.65 0-1.19.7-1.19 1.57Zm-17.45 2.4c0 .43-1.25.79-2.77.79-1.53 0-2.78-.36-2.78-.8 0-.43 1.25-.79 2.78-.79 1.52 0 2.77.36 2.77.8Zm19.04 1.58c0 .44-.38.8-.84.8-.46 0-.62-.36-.35-.8.27-.44.65-.8.84-.8.2 0 .35.36.35.8ZM8.31 25.42v10.31H2.76V15.11h5.55v10.3Zm35.05-8.29c.35 1.72 1.76 1.83 2.08.16.17-.87-.22-1.4-1.03-1.4-.77 0-1.2.52-1.05 1.24ZM20.6 21.45c-.27.44-.99.8-1.59.8-.6 0-1.31-.36-1.58-.8-.28-.45.4-.8 1.58-.8 1.18 0 1.87.35 1.59.8Zm15.47 0c0 .44-.52.8-1.15.8-.63 0-1.36-.36-1.63-.8-.27-.43.25-.8 1.14-.8.9 0 1.64.37 1.64.8Zm-6.75 4.76c.3.47-.66.8-2.38.8-1.7 0-2.67-.33-2.38-.8.27-.43 1.35-.8 2.38-.8 1.04 0 2.11.37 2.38.8ZM15.2 35.44c-1.43 1.43 1.36 1.88 11.8 1.88 9.64 0 11.45-.2 11.45-1.2s-1.8-1.18-11.37-1.18c-6.26 0-11.6.23-11.88.5ZM8.3 38.9c0 .44-1.25.8-2.77.8-1.53 0-2.78-.36-2.78-.8 0-.43 1.25-.79 2.78-.79 1.52 0 2.77.36 2.77.8Zm7.34 2.1c-2.91 1.21 1.13 1.87 11.42 1.87 8.86 0 11.44-.23 11.19-1-.24-.71-3.27-1.02-10.97-1.13-5.86-.08-11.1.04-11.64.27ZM8.3 45.26c0 2.6-.27 3.17-1.52 3.17a9.3 9.3 0 0 0-2.77.48c-1.04.4-1.26-.16-1.26-3.17 0-3.65 0-3.65 2.78-3.65 2.7 0 2.77.07 2.77 3.17Zm34.76 8.13-.25 2.58-12.5.22-12.49.21v-2.04c0-1.95-.18-2.04-3.77-1.8-3.24.2-3.8.49-4.02 2.06-.23 1.62-.64 1.8-3.57 1.59-2.8-.2-3.35-.53-3.58-2.14-.15-1.04.2-2.2.8-2.56.58-.37 9.73-.68 20.34-.69h19.29l-.25 2.57Zm-26.82 3.57c0 1.8-.35 2.18-1.99 2.18-1.63 0-1.98-.38-1.98-2.18 0-1.8.35-2.18 1.98-2.18 1.64 0 1.99.38 1.99 2.18Z" />
  </symbol>
  <symbol id="icon-bookmark" viewBox="0 0 34 34" fill="none">
    <path stroke-linecap="round" stroke-linejoin="round" stroke-width="1.5"
      d="M31.17 6.62v17.1a2.9 2.9 0 0 1-2.47 2.8l-.47.06a36.07 36.07 0 0 0-10.56 3.48c-.37.21-.98.21-1.36 0l-.06-.03a36.4 36.4 0 0 0-10.54-3.45l-.41-.06a2.91 2.91 0 0 1-2.47-2.8V6.6A2.79 2.79 0 0 1 5.9 3.78c2.98.24 7.48 1.75 10 3.32l.36.21c.41.25 1.1.25 1.5 0l.24-.16c.9-.55 2.03-1.1 3.26-1.6v5.78l2.83-1.88 2.84 1.88v-7.4A11 11 0 0 1 28 3.8h.08a2.8 2.8 0 0 1 3.08 2.82ZM17 7.78v21.25" />
    <path stroke-linecap="round" stroke-linejoin="round" stroke-width="1.5" d="M26.92 3.94v7.4l-2.84-1.9-2.83 1.9v-5.8a28.63 28.63 0 0 1 5.67-1.61Z" />
  </symbol>
  <symbol id="icon-call" viewBox="0 0 30 30" fill="none">
    <path stroke-miterlimit="10" stroke-width="1.5"
      d="M29.12 23.97a3.6 3.6 0 0 1-.35 1.54 6.39 6.39 0 0 1-3.29 3.12c-.85.35-1.77.54-2.76.54a11.8 11.8 0 0 1-4.62-1.04 24.88 24.88 0 0 1-4.87-2.8 40.74 40.74 0 0 1-4.65-3.97 40.26 40.26 0 0 1-3.95-4.63 25.25 25.25 0 0 1-2.78-4.83A11.93 11.93 0 0 1 .83 7.26c0-.96.17-1.88.51-2.73a6.6 6.6 0 0 1 1.63-2.37A4.17 4.17 0 0 1 5.92.83c.4 0 .8.09 1.15.26.37.17.7.42.95.8L11.3 6.5c.26.36.44.68.57 1a1.88 1.88 0 0 1-.1 1.86c-.18.33-.45.67-.8 1.01L9.9 11.5a.76.76 0 0 0-.23.57c0 .11.02.21.05.32l.11.29c.25.46.7 1.07 1.32 1.81a41.3 41.3 0 0 0 2.05 2.24c.77.75 1.5 1.44 2.25 2.08.74.62 1.35 1.05 1.83 1.3l.26.12c.11.04.22.05.35.05.24 0 .43-.08.58-.24l1.08-1.06c.35-.35.7-.62 1.02-.8.32-.2.65-.29 1-.29.27 0 .56.06.87.18.31.13.64.32.99.56l4.69 3.33c.37.25.62.55.78.9.14.36.22.71.22 1.1Z" />
    <path stroke-linecap="round" stroke-linejoin="round" stroke-width="1.5" d="M24.2 10.75c0-.85-.66-2.15-1.65-3.22-.9-.97-2.11-1.74-3.3-1.74m9.92 4.96A9.9 9.9 0 0 0 19.25.83" />
  </symbol>
  <symbol id="icon-case" viewBox="0 0 34 34" fill="none">
    <path stroke-linecap="round" stroke-linejoin="round" stroke-miterlimit="10" stroke-width="1.5"
      d="M11.33 31.17h11.34c5.7 0 6.71-2.28 7-5.06l1.07-11.33c.38-3.46-.6-6.28-6.66-6.28H9.92c-6.05 0-7.04 2.82-6.66 6.28L4.32 26.1c.3 2.78 1.32 5.06 7.01 5.06Zm0-22.67V7.37c0-2.51 0-4.54 4.54-4.54h2.26c4.54 0 4.54 2.03 4.54 4.54V8.5" />
    <path stroke-linecap="round" stroke-linejoin="round" stroke-miterlimit="10" stroke-width="1.5"
      d="M19.83 18.42v1.44c0 1.55-.01 2.8-2.83 2.8-2.8 0-2.83-1.24-2.83-2.78v-1.46c0-1.42 0-1.42 1.41-1.42h2.84c1.41 0 1.41 0 1.41 1.42Zm10.84-2.84a23.35 23.35 0 0 1-10.84 4.28" />
    <path stroke-linecap="round" stroke-linejoin="round" stroke-miterlimit="10" stroke-width="1.5" d="M3.71 15.97a23.07 23.07 0 0 0 10.46 3.9" />
  </symbol>
  <symbol id="icon-close" viewBox="0 0 24 24" fill="none">
    <path stroke-linecap="round" stroke-linejoin="round" stroke-width="3.4" d="M18 6 6 18M6 6l12 12" />
  </symbol>
  <symbol id="icon-close-quote" viewBox="0 0 27 17" stroke="none">
    <path
      d="M23.97 1.94a6.27 6.27 0 0 1 2.3 5.2c0 4.21-3.58 8-8.79 9.86l-1.3-1.66c4.86-2.17 5.82-5 6.2-6.77-.79.33-1.81.45-2.82.37-2.63-.2-4.7-1.99-4.7-4.2 0-1.12.53-2.2 1.49-2.99a5.7 5.7 0 0 1 3.6-1.23 6.42 6.42 0 0 1 4.02 1.42Zm-14.6 0a6.27 6.27 0 0 1 2.32 5.2c0 4.21-3.59 8-8.8 9.86l-1.3-1.66c4.86-2.17 5.81-5 6.2-6.77a6.3 6.3 0 0 1-2.82.37C2.33 8.74.26 6.95.26 4.74c0-1.12.54-2.2 1.5-2.99A5.7 5.7 0 0 1 5.36.52a6.42 6.42 0 0 1 4.02 1.42Z" />
  </symbol>
  <symbol id="icon-document" viewBox="0 0 57 64" stroke="none">
    <path fill-rule="evenodd" clip-rule="evenodd"
      d="M5.3 1.48C4.59 2.28 4 3.15 4 3.42S3.13 4.8 2.05 5.89L.1 7.86v26.12C.1 59.1.16 60.16 1.67 61.7c1.53 1.54 2.41 1.59 28.3 1.38l26.72-.2.26-1.83c.42-2.99-1.85-5.6-5.34-6.17l-3.11-.5v-4.65c0-2.55-.32-4.64-.7-4.64-1.06 0-1.64 2.13-1.64 6 0 3.16-.18 3.49-1.88 3.49-1.72 0-1.92-.41-2.43-4.94a39.03 39.03 0 0 0-1.73-7.91c-1.05-2.68-1.04-3.16.11-4.94 1.72-2.66 5.34-2.67 7.61-.02.92 1.07 1.97 1.76 2.34 1.53 1.1-.69.76-1.64-1.28-3.6-1.93-1.85-1.94-1.89-1.95-17.3 0-10.96-.29-15.74-.95-16.4-.68-.7-6.25-.96-20.17-.96C8.18.03 6.48.15 5.3 1.48Zm39.3 15.94c0 9.49-.3 15.02-.79 15.02-.47 0-.78-3.36-.78-8.48v-8.48l-5.24-5.35-5.25-5.35h-13.1c-11.96 0-14.09-.32-12.57-1.85.28-.29 8.89-.53 19.12-.53h18.6v15.02Zm-13.27-7.06c0 5.14.99 6.27 5.49 6.27h3.87v8.2c0 6.13-.28 8.44-1.1 9.14-2.1 1.75-2.7 5.06-1.53 8.4.6 1.71 1.3 5.15 1.58 7.65l.5 4.55h-2.35c-2.85 0-6.46 2.7-6.46 4.81 0 1.48-.57 1.54-14.25 1.33L2.83 60.5l-.2-25.68C2.5 20.7 2.59 8.7 2.8 8.14c.28-.75 3.86-1 14.45-1h14.08v3.22Zm5.46 1.13 2.65 2.77h-2.89c-2.77 0-2.88-.1-2.88-2.77 0-1.52.1-2.76.23-2.76s1.43 1.24 2.89 2.76Zm-24 3.28c-2.75 1.16-.17 1.86 6.9 1.86 5.94 0 7.78-.24 7.54-.99-.33-1-12.4-1.73-14.44-.87Zm-7.22 7.02c0 1.04 1.9 1.17 14.18.98 10.5-.16 14.26-.47 14.5-1.2.26-.77-2.92-.99-14.18-.99-12.47 0-14.5.17-14.5 1.2Zm0 3.97c0 .99.84 1.18 4.42.99 6.36-.34 6.63-2.22.32-2.22-3.76 0-4.74.26-4.74 1.23Zm11.31-.43c-.8 1.33 1.32 1.65 9.36 1.4 5.3-.15 7.8-.53 8.01-1.2.41-1.25-16.61-1.44-17.37-.2ZM5.57 29.67c0 1 1.73 1.19 10.92 1.19 9.2 0 10.93-.2 10.93-1.19 0-1-1.73-1.18-10.93-1.18-9.19 0-10.92.18-10.92 1.18Zm24.2.05c0 .88.6 1.17 2.08 1 3.04-.37 3.3-2.23.32-2.23-1.66 0-2.4.38-2.4 1.23ZM48.22 41.5c-.6 1.55 1.04 2.5 1.9 1.12.98-1.57.87-2.28-.38-2.28-.6 0-1.28.52-1.52 1.16Zm-40.6 4.43c-1.14.9-2.06 2.15-2.06 2.77 0 1.58.77 1.4 2.94-.65 1.85-1.77 1.87-1.77 3-.2.88 1.21 2.13 1.6 5.4 1.7 2.35.06 4.27-.15 4.27-.47 0-1.08-3.98-2.43-5.8-1.97-1.37.35-1.9.08-2.22-1.18-.54-2.1-2.89-2.1-5.54 0ZM5.56 53c0 .47 3.12.79 7.8.79 4.69 0 7.8-.32 7.8-.8 0-.47-3.11-.78-7.8-.78-4.68 0-7.8.31-7.8.79Zm48.24 4.9c2.53 2.56 1.13 3-9.6 3-10.74 0-12.14-.44-9.6-3 1.28-1.3 17.9-1.3 19.2 0Z" />
  </symbol>
  <symbol id="icon-down" viewBox="0 0 20 11" stroke="none">
    <path
      d="M19.75.31a.92.92 0 0 0-.68-.3.9.9 0 0 0-.67.26L10 8.22 1.6.27A.88.88 0 0 0 .93.01c-.27 0-.5.1-.68.3A.9.9 0 0 0 0 1c.01.26.11.48.3.66l9.04 8.57a1.07 1.07 0 0 0 .66.26.8.8 0 0 0 .34-.07c.11-.05.22-.1.32-.19l9.05-8.57c.18-.18.28-.4.29-.66a.9.9 0 0 0-.25-.69Z" />
  </symbol>
  <symbol id="icon-folder" viewBox="0 0 57 64" stroke="none">
    <path fill-rule="evenodd" clip-rule="evenodd"
      d="M9.9 2.07c-.67.68-1.23 1.6-1.23 2.05 0 .45-.89 1.51-1.97 2.37-1.84 1.44-1.97 2.01-1.97 8.58 0 5.37-.25 7.04-1.06 7.04-.58 0-1.65.64-2.37 1.44C.17 24.8 0 27.35 0 43.09c0 13.03.26 18.37.95 19.05.7.7 7.9.94 27.55.94 25.69 0 26.63-.05 27.44-1.55.52-.99.75-7.17.62-16.74l-.22-15.18-2.16-1.04C52.98 28 52 27.02 52 26.4c0-.63-.53-1.14-1.18-1.14-.65 0-1.18.53-1.18 1.18 0 .65-.36 1.18-.8 1.18-.45 0-.78-2.44-.78-5.73v-5.74l-5.34-5.3-5.34-5.3H24.21c-11.19 0-13.18-.17-13.18-1.18S13.7 3.2 30.33 3.2h19.32v7.49c0 6.13.21 7.49 1.18 7.49.96 0 1.18-1.35 1.18-7.37C52 .23 53.3.83 30.14.83 13.92.83 10.96 1 9.9 2.07Zm26.35 9.63c0 2.08.42 4.21.94 4.73.52.52 2.65.95 4.73.95h3.79v10.24H23.04l-2.1-2.76c-2.08-2.71-2.2-2.75-7.98-2.75H7.1v-6.57c0-3.61.24-6.8.53-7.1.29-.28 6.85-.52 14.58-.52h14.05v3.78ZM10 10.8c-1.42 1.42 1.36 1.86 11.72 1.86 9.59 0 11.38-.19 11.38-1.18 0-1-1.78-1.19-11.3-1.19-6.21 0-11.52.23-11.8.5Zm31.37 1.86L43.64 15h-2.52c-2.26 0-2.5-.23-2.5-2.36 0-1.3.1-2.37.24-2.37.14 0 1.27 1.07 2.51 2.37ZM10 14.73c-1.42 1.42 1.36 1.86 11.72 1.86 9.59 0 11.38-.19 11.38-1.18 0-1-1.78-1.18-11.3-1.18-6.21 0-11.52.22-11.8.5Zm0 3.94c-1.42 1.42 1.36 1.86 11.72 1.86 9.59 0 11.38-.19 11.38-1.18 0-1-1.78-1.18-11.3-1.18-6.21 0-11.52.22-11.8.5Zm39.78 3.08c.36 1.71 1.76 1.82 2.08.16.16-.86-.22-1.38-1.03-1.38-.76 0-1.2.5-1.05 1.22ZM19.9 27.21l1.78 2.73 16.15.22 16.16.22V61.1H2.76l-.21-17.3c-.12-9.52-.04-17.77.17-18.32.27-.71 2.54-1 7.89-1h7.5l1.78 2.74Zm-4.13 8.28c-.7 1.33-.32 2.13 2.46 5.14 1.8 1.97 3.07 3.79 2.8 4.05-.26.27-.12 1.15.31 1.96.64 1.19.51 1.47-.66 1.47a3.33 3.33 0 0 0-3.33 3.2c0 1.36 7.22 8.62 8.57 8.62 1.24 0 3.25-2.36 3.25-3.83 0-1.71 7.1-8.78 8.83-8.78 1.4 0 3.77-2.01 3.77-3.2 0-1.12-7.73-8.62-8.89-8.62-1.48 0-2.93 1.65-2.93 3.33 0 2.17-3.72 1-7.12-2.24-3.15-3-5.81-3.42-7.06-1.1Zm7.37 5.72c-.25.4-1.64-.42-3.1-1.83-1.44-1.4-2.43-2.88-2.18-3.28.25-.4 1.64.42 3.1 1.82 1.44 1.4 2.43 2.89 2.18 3.3Zm13.28-.43c3.06 2.98 3.66 4.18 2.13 4.18-.93 0-6.18-5.5-6.21-6.5-.04-1.2 1.17-.52 4.08 2.32Zm-10.7 3.25c-1.1 1.11-2.27 1.78-2.57 1.47-.77-.76 2.91-4.55 3.85-3.97.41.26-.16 1.38-1.27 2.5Zm7.95-.34 1.64 1.88-4.1 4.05-4.1 4.04-1.88-2-1.88-2 3.86-3.93c2.13-2.16 4.08-3.92 4.35-3.92.26 0 1.21.84 2.11 1.88Zm-9.64 9.92c1.69 1.73 2.82 3.39 2.51 3.7-.58.57-6.83-5.1-6.83-6.2 0-1.32 1.36-.53 4.32 2.5Z" />
  </symbol>
  <symbol id="icon-letter" viewBox="0 0 55 64" stroke="none">
    <path fill-rule="evenodd" clip-rule="evenodd"
      d="M7.33 1.27c-1 1.02-1.23 3.36-1.24 12.85v11.6L3.35 27.6.62 29.48v15.69c0 15.66 0 15.69 1.87 16.92 1.61 1.07 5.15 1.2 25.9 1 22.74-.21 24.09-.3 25.14-1.76 1.26-1.74 1.51-7.55.32-7.55-.43 0-.78 1-.78 2.24 0 1.23-.2 2.45-.46 2.7-.68.69-17.63-12.07-17.13-12.89.54-.87 16.45-12.6 17.1-12.6.27 0 .5 3.2.5 7.11 0 4.22.31 7.11.77 7.11.48 0 .79-3.52.79-8.98v-8.99L51.9 27.6l-2.73-1.88v-7.53l-.01-7.53-5.3-5.31L38.54.03h-15C10.96.03 8.36.23 7.33 1.27ZM37.4 6.33c0 4.55 1.12 5.56 6.21 5.56h3.19v22.6l-6.77 4.97-6.78 4.97-2.87-1.31c-2.68-1.22-3.06-1.22-5.64.02l-2.77 1.34-6.77-4.98-6.76-4.98V2.4H37.4v3.93Zm5.1.82 2.24 2.37h-2.5c-2.24 0-2.49-.23-2.49-2.37 0-1.3.11-2.37.25-2.37.13 0 1.25 1.06 2.5 2.37ZM26.44 16.6c0 2.45-3.4 4.26-6.94 3.69-3.49-.57-4.78.21-2.44 1.47l1.62.88-1.7 2.18c-1.4 1.81-1.55 2.51-.84 4.09 1 2.23 4.34 3.32 5.98 1.95 1.92-1.6 2.23-3.95.73-5.62-1.69-1.89-.53-3.51 1.95-2.72 2.5.8 2.31 6.33-.31 8.8-1.08 1-1.96 2.57-1.96 3.48 0 1.53.37 1.64 4.88 1.42 5.72-.28 6.72-1.74 3.35-4.9-1.72-1.61-2.02-2.5-1.82-5.34.18-2.59.6-3.49 1.7-3.7 2.38-.45 3.34 1.18 1.74 2.96-2.48 2.77.2 7 3.87 6.07 3-.76 3.93-4 1.91-6.6-1.4-1.8-1.45-2.15-.4-2.74 2.29-1.3 1.26-2.21-1.91-1.7-3.66.59-7.06-1.18-7.06-3.67 0-.86-.52-1.56-1.17-1.56-.65 0-1.18.7-1.18 1.56Zm1.57 3.97c0 .44-.37.8-.83.8-.46 0-.61-.36-.35-.8.27-.43.64-.79.83-.79.2 0 .35.36.35.8Zm-6.66 7.9c-.26.44-.97.8-1.56.8-.6 0-1.3-.36-1.57-.8-.27-.44.4-.78 1.57-.78s1.84.34 1.56.79Zm15.66 0c-.26.44-.97.8-1.56.8-.6 0-1.3-.36-1.57-.8-.28-.44.4-.78 1.57-.78 1.16 0 1.84.34 1.56.79ZM6.1 30.57c0 1.76-.18 1.92-1.19 1.08-.9-.76-.97-1.25-.3-2.07 1.26-1.52 1.49-1.37 1.49.99Zm44.54-1c.67.83.6 1.32-.3 2.08-1 .84-1.18.68-1.18-1.08 0-2.36.23-2.51 1.48-1Zm-30.85 16.3c.5.8-16.48 13.53-17.14 12.86-.26-.25-.47-6.27-.47-13.37v-12.9l8.6 6.37c4.74 3.51 8.79 6.68 9.01 7.04Zm10.19-12.63c.28.47-.66.79-2.35.79-1.7 0-2.64-.32-2.35-.8.26-.43 1.32-.78 2.35-.78 1.02 0 2.08.35 2.35.79Zm9.76 19.44 10.53 7.82-11.56.22c-6.36.12-16.56.12-22.66 0L4.97 60.5l10.93-8.14c6.02-4.48 11.47-8 12.13-7.83.65.18 5.92 3.84 11.71 8.15Zm13.33-2.05c0 .87.35 1.58.78 1.58.43 0 .79-.72.79-1.58 0-.87-.36-1.59-.79-1.59-.43 0-.78.72-.78 1.59Z" />
  </symbol>
  <symbol id="icon-logo" viewBox="0 0 214 42" stroke="none">
    <path fill-rule="evenodd" clip-rule="evenodd"
      d="M0 1.7v1.53h28.75V.17H0V1.7Zm3.46 3.28.66.57.07 15.02.06 15.03-.64.67-.63.66h23.14l-.69-.69c-.4-.4-.69-.94-.69-1.29v-.6l-8.77-.07-8.78-.06-.06-14.9L7.07 4.4H2.8l.66.57ZM9.43 18.3v13.9h2.82v-7.45l1-.68a15.1 15.1 0 0 0 1.13-.8c.06-.07.92-.67 1.91-1.35l1.8-1.23.93.64 1.91 1.35.98.71v8.84h2.84l-.06-5.1-.06-5.1-2-1.27a15 15 0 0 1-2.07-1.45c-.04-.1.9-.9 2.06-1.8l2.12-1.6v-4.82c0-5.04.15-5.85 1.12-6.42.29-.16-2.17-.24-8-.24L9.42 4.4v13.9ZM84.35 7.85C82.78 11.23 82.86 11 83.17 11c.15 0 .44-.37.66-.83l.39-.82h3.36l.4.82c.2.46.5.83.63.83.33 0 .37.09-1.05-2.98-.71-1.54-1.43-2.83-1.61-2.86-.2-.05-.78.92-1.6 2.68Zm6.33-.54c-.12 2.26-.42 3.23-1.02 3.23-.24 0-.34.27-.34.94 0 .52.1.94.23.94s.24-.32.24-.7V11h5.42v.7c0 .4.1.71.23.71s.24-.42.24-.94c0-.79-.08-.94-.47-.94-.45 0-.47-.16-.47-2.71v-2.7h-3.95l-.11 2.19Zm6.41.75v2.95h1.66c2.21 0 3.06-.42 3.06-1.53 0-.56-.16-.91-.52-1.16-.48-.34-.49-.39-.12-.8.53-.58.5-1.36-.07-1.93-.39-.39-.79-.47-2.24-.47H97.1v2.94Zm7.78-2.79c-2.15.86-2.41 4.05-.43 5.26 3.09 1.88 6.38-1.85 4-4.52-.56-.62-.86-.74-1.94-.8a6.05 6.05 0 0 0-1.63.06Zm6 .16c-.26.66 0 5.42.3 5.52.22.07.3-.3.3-1.34 0-1.42 0-1.43.69-1.43.56 0 .86.24 1.7 1.4.57.78 1.16 1.42 1.32 1.42.46.01.36-.2-.6-1.37-1.36-1.65-1.36-1.58-.3-2.98.53-.7.96-1.34.96-1.42 0-.35-.48.08-1.37 1.21-.7.88-1.15 1.24-1.68 1.32l-.72.1V6.5c0-1.27-.31-1.82-.6-1.06Zm7.21.69-1.28 2.84c-.95 2.05-.95 2.05-.6 2.05.13 0 .4-.37.59-.83l.34-.82h3.5l.3.82c.16.46.43.83.6.83.21 0 .12-.41-.31-1.36l-1.33-2.94c-.4-.88-.86-1.6-1.04-1.6-.18 0-.53.46-.77 1Zm3.76-.77c0 .13.47.24 1.06.24h1.06v2.73c0 2.08.07 2.7.3 2.63.2-.07.3-.88.35-2.73l.07-2.63h.92c.5 0 .99-.1 1.07-.24.1-.15-.74-.23-2.34-.23-1.5 0-2.5.1-2.5.23Zm8.25 2.71c0 2.42.06 2.97.32 2.9.18-.03 1.16-1.13 2.18-2.42l1.86-2.36.06 2.42c.1 3.49.53 3.04.53-.56 0-2.26-.07-2.94-.3-2.87a15.5 15.5 0 0 0-2 2.32 15.84 15.84 0 0 1-1.88 2.22c-.1 0-.2-1-.23-2.23-.02-1.34-.14-2.27-.3-2.32-.16-.05-.24.88-.24 2.9Zm7.17-2.63c-.26.66.01 5.42.3 5.52.22.07.3-.3.3-1.34V8.18h3.77v1.43c0 1.05.08 1.41.3 1.34.39-.14.36-5.65-.03-5.79-.18-.05-.27.38-.27 1.23v1.32h-3.77V6.4c0-1.2-.32-1.72-.6-.98Zm6.97 2.63c0 2.46.05 2.95.35 2.95.27 0 .35-.32.35-1.42V8.2h3.77v1.4c0 .79.1 1.42.24 1.42.14 0 .24-1.14.24-2.95 0-1.8-.1-2.94-.24-2.94-.13 0-.24.58-.24 1.3V7.7h-3.77V6.4c0-1-.08-1.3-.35-1.3-.3 0-.35.5-.35 2.95Zm8.5-1.94-1.3 2.84c-.94 2.05-.94 2.05-.6 2.05.14 0 .41-.37.6-.83l.34-.82h3.44l.4.82c.21.46.5.83.63.83.33 0 .36.09-.9-2.62a70.07 70.07 0 0 1-1.3-2.86c-.25-.72-.86-.45-1.31.59Zm7.85-.23c-.67.62-.87 1-.95 1.83-.13 1.27.23 2.03 1.3 2.75 1.03.7 2.58.72 3.36.08.45-.38.48-.47.16-.48-.22 0-.47.1-.55.23-.08.13-.61.24-1.18.24-.82 0-1.21-.15-1.82-.69-.66-.6-.77-.84-.77-1.79 0-.94.11-1.2.77-1.78.6-.54 1-.7 1.82-.7.57 0 1.1.11 1.18.24.18.29.83.32.83.04 0-.35-1.18-.74-2.25-.74-.87 0-1.21.14-1.9.77Zm5.66-.46c-.06.17-.08 1.47-.05 2.88l.07 2.58 2.06.07c1.32.04 2.06-.02 2.06-.18 0-.15-.7-.24-1.76-.24h-1.77V8.18h1.53c.87 0 1.53-.1 1.53-.23 0-.14-.66-.24-1.53-.24h-1.53V5.59h1.64c.9 0 1.7-.1 1.78-.24.09-.15-.6-.23-1.88-.23-1.46 0-2.06.08-2.14.3Zm5.67-.03c-.26.69 0 5.45.3 5.55.2.07.3-.2.3-.86v-.97h1.19c1.28 0 2.43-.46 2.67-1.07a2.5 2.5 0 0 0-.3-2.25c-.38-.47-.7-.57-2.24-.64-1.4-.07-1.82-.02-1.92.24Zm6.02 2.66c0 2.46.05 2.95.35 2.95s.35-.46.35-2.71V5.59h1.53c.87 0 1.54-.1 1.54-.24 0-.13-.79-.23-1.89-.23h-1.88v2.94Zm4.94 0v2.95H185c1.25 0 2.12-.1 2.12-.24 0-.13-.77-.23-1.83-.23h-1.83l.09-1.18.08-1.18h1.5c.86 0 1.52-.1 1.52-.23 0-.14-.67-.24-1.54-.24h-1.53V5.59h1.65c.94 0 1.65-.1 1.65-.24 0-.14-.82-.23-2-.23h-2v2.94Zm5.66 0v2.95h2.12c1.26 0 2.12-.1 2.12-.24 0-.13-.74-.23-1.76-.23h-1.77V8.18h1.53c.86 0 1.53-.1 1.53-.23 0-.14-.67-.24-1.53-.24h-1.53V5.59h1.65c.94 0 1.65-.1 1.65-.24 0-.14-.83-.23-2-.23h-2v2.94Zm5.7-.06.08 2.9 1.82.06c1.7.06 1.87.03 2.44-.54.48-.48.58-.75.45-1.25-.08-.35-.23-.66-.31-.7-.72-.28-.82-.49-.44-.87.22-.22.4-.7.4-1.07 0-1.04-.74-1.41-2.77-1.41h-1.73l.07 2.88Zm6.56.06c0 1.81.09 2.95.23 2.95.13 0 .24-.63.24-1.42V8.2H205l.07 1.33c.05.8.2 1.37.37 1.43.22.08.3-.6.3-2.89 0-2.28-.08-2.96-.3-2.88-.19.06-.3.55-.3 1.31v1.22h-3.88V6.4c0-.71-.1-1.3-.24-1.3-.14 0-.23 1.15-.23 2.95Zm7.65-.2c-.71 1.5-1.3 2.82-1.3 2.94 0 .51.5.14.82-.62l.34-.82h3.33l.4.82c.35.75.77 1.1.77.66 0-.26-2.15-5.08-2.42-5.43-.12-.16-.32-.3-.44-.3s-.8 1.24-1.5 2.74Zm-114.17.2v2.48h-1.9c-1.87 0-1.89-.01-1.62-.51.15-.28.33-1.4.4-2.48l.12-1.96h3v2.47Zm6.46-2.1c.45.45.47.82.07 1.36-.24.33-.59.4-1.71.34l-1.4-.07-.08-1-.07-1h1.4c.98 0 1.53.11 1.79.37Zm7.22.32c.57.56.7.89.7 1.78 0 .9-.13 1.22-.7 1.79-.56.56-.89.69-1.78.69-.9 0-1.23-.13-1.79-.7-.56-.56-.69-.88-.69-1.78s.13-1.22.7-1.78c.55-.57.88-.7 1.78-.7s1.22.13 1.78.7Zm67.62-.22c.26.26.47.74.47 1.06 0 1-.77 1.53-2.24 1.53h-1.3V5.6h1.3c.98 0 1.41.11 1.77.47Zm22.34-.19c.37.37.36 1.25-.01 1.55-.16.13-.9.28-1.65.33l-1.36.08V5.59h1.37c.75 0 1.5.13 1.65.28ZM86.8 7.53l.6 1.36H86c-.77 0-1.4-.1-1.4-.2 0-.53 1.23-2.91 1.4-2.72.1.11.46.82.8 1.56Zm32.9-.1c.28.7.47 1.32.41 1.38-.05.05-.69.07-1.4.03l-1.3-.07.69-1.52c.38-.84.77-1.41.88-1.3.1.13.43.8.71 1.49Zm35.09 1.35c-.08.07-.72.1-1.43.06l-1.28-.07.7-1.53.68-1.53.73 1.46c.4.8.67 1.53.6 1.6Zm55.9-1.6.66 1.52c.04.1-.57.19-1.37.19-.8 0-1.42-.09-1.38-.2.53-1.3 1.29-2.86 1.4-2.86.06 0 .38.6.7 1.34Zm-189.46.51.69.69v6.14l-4.06 2.9c-4.08 2.91-5.28 3.72-5.5 3.72-.07 0-.1-2.98-.06-6.62l.07-6.62.56-.45c.5-.4.96-.45 4.08-.45h3.53l.69.7Zm79.76.97c.45.38.44 1.04-.03 1.52-.3.28-.75.36-1.83.3l-1.45-.06-.07-.79c-.14-1.39.03-1.53 1.62-1.39.78.08 1.57.26 1.76.42Zm97.22.01c.36.57.24 1.37-.24 1.62a5 5 0 0 1-1.76.25h-1.32V8.2l1.56.07c1.02.04 1.62.18 1.76.4ZM15.31 12.8c0 4.14-.1 3.99 1.85 2.53l1.22-.9V9.12h-3.06v3.68Zm29.24 11.3v11.66h2.83v-9.69l1.12.2c.61.1 2.12.18 3.36.16 2.8-.02 4.56-.64 6.02-2.1 1.49-1.48 1.82-2.29 1.94-4.6.13-2.53-.42-4.02-2.01-5.41-1.88-1.66-2.9-1.89-8.44-1.89h-4.82V24.1Zm8.5-9.98c2.24.67 3.63 2.78 3.62 5.5-.02 2.63-1.14 4.29-3.51 5.2-.84.31-1.53.38-3.16.28a11.8 11.8 0 0 1-2.36-.28c-.18-.11-.26-1.83-.26-5.57v-5.4h2.39c1.31 0 2.79.12 3.28.27Zm14.7 5.1c-1.23.43-3.17 1.82-3.17 2.28 0 .15.32.58.71.95l.72.69 1.1-1.26c1.27-1.46 2.17-1.9 3.85-1.9 1.48 0 2.59.49 3.11 1.38.38.65.87 3.17.88 4.56 0 .77-.45.85-1.05.19a5.8 5.8 0 0 0-1.75-.97c-4.14-1.56-8.57 1.17-8.6 5.32-.01 1.82.36 2.87 1.39 3.93 2.17 2.23 5.96 2.48 8.83.58.97-.64 1.18-.6 1.18.24 0 .51.1.55 1.32.55h1.31l-.09-6.54c-.06-4.24-.18-6.76-.36-7.17a6.06 6.06 0 0 0-3.06-2.88 13 13 0 0 0-6.31.05Zm58.9 0c-1.28.45-3.15 1.79-3.15 2.26 0 .16.32.6.72.98l.73.7.46-.6c1.73-2.19 2.72-2.7 4.95-2.54 2.3.17 3.05 1.23 3.4 4.84.18 1.93.03 2.08-1.11 1.13-1.55-1.31-5.35-1.68-6.97-.68-3.38 2.1-4.25 5.5-2.2 8.6.95 1.43 2.27 2.13 4.28 2.27 1.81.13 3.51-.3 5-1.26.74-.5.9-.53 1.02-.22.07.2.08.52 0 .71-.1.29.12.35 1.27.35h1.4v-5.73c0-7.18-.15-8.12-1.63-9.6a4.55 4.55 0 0 0-2.18-1.36c-1.63-.4-4.57-.33-5.98.16Zm39.93-.1c-4.97 1.34-7.5 7.3-5.2 12.22 1.4 3 3.9 4.67 7.25 4.85 3.86.2 6.74-1.47 8.29-4.79.91-1.96 1.05-5.03.32-6.98-1.63-4.37-6.02-6.54-10.66-5.3Zm36.63.12c-1.2.41-1.84.83-2.7 1.77-.55.6-.54.65.3 1.45l.73.7.47-.6c1.63-2.06 2.53-2.59 4.42-2.59 2.82 0 3.63 1.04 3.95 5.07l.16 1.88-.57-.42c-2.17-1.57-3.22-1.92-5.3-1.75-5.2.41-7.53 6.43-3.86 10.01 1.91 1.87 5.82 1.96 8.49.2.5-.34.97-.61 1.03-.61.07 0 .13.32.13.7 0 .7 0 .71 1.31.71h1.32l-.09-6.54c-.09-7.38-.14-7.62-1.82-9.06a6.04 6.04 0 0 0-2.02-1.1c-1.59-.4-4.53-.31-5.95.18ZM83.23 21.67c1.06 1.46 2.44 3.33 3.06 4.16a9.15 9.15 0 0 1 1.14 1.74c0 .21-1.18 1.82-4.76 6.47-.62.8-1.13 1.52-1.13 1.59 0 .07.4.12.88.11.86-.01.96-.1 3.45-3.42 1.41-1.87 2.6-3.4 2.64-3.4.03 0 1.2 1.54 2.58 3.42l2.51 3.41h1.66c1.3 0 1.6-.06 1.42-.3a280.04 280.04 0 0 1-6.42-8.8c0-.09 1.15-1.7 2.56-3.6 3.24-4.36 3.07-4.03 1.99-4.02-.88 0-.95.07-3.23 3.21-2.15 2.94-2.37 3.17-2.66 2.76-.17-.24-1.23-1.69-2.36-3.21l-2.04-2.77H81.3l1.93 2.65Zm17.63 5.72c0 8.2.01 8.36.47 8.36.47 0 .48-.15.48-6.48 0-3.85.09-6.48.22-6.48.12 0 .92 1.46 1.78 3.24l3.24 6.72a27.79 27.79 0 0 0 1.83 3.47c.1 0 1.52-3 3.18-6.65a178.2 178.2 0 0 1 3.21-6.88c.12-.13.2 2.73.2 6.42v6.64h2.83V19.02H117c-1.15 0-1.33.07-1.51.55-.11.3-.84 1.92-1.62 3.6-.77 1.67-1.96 4.26-2.63 5.75-.67 1.49-1.3 2.8-1.4 2.9-.11.11-.51-.47-.9-1.3l-3.13-6.5-2.43-5h-2.52v8.37Zm41.01 0v8.36h2.83v-8h8.48v8h2.83V19.02h-2.83v7.78h-8.48v-7.78h-2.83v8.37Zm40.41-8.1c-.06.18-.09 3.93-.06 8.33l.07 8.02 4.7.06c5.87.08 6.89-.2 8.32-2.22.77-1.08.74-3.2-.05-4.36-.58-.86-2.23-1.85-3.1-1.85-.24 0-.6-.1-.8-.23-.27-.17-.2-.26.32-.46.36-.14.74-.25.84-.25.34 0 1.68-1.43 1.91-2.03.67-1.76-.07-3.55-1.9-4.57-1-.56-1.26-.6-5.59-.67-3.64-.07-4.56-.02-4.66.24Zm-10.53 1.32c1.15.59 2.3 2.33 2.65 4 .16.79.24 2.37.18 3.75-.1 2-.22 2.61-.76 3.72a6.36 6.36 0 0 1-1.4 1.9 6.27 6.27 0 0 1-5.8.48 6.17 6.17 0 0 1-2.2-2.38c-1.02-2.02-1.1-6.6-.14-8.81.57-1.33 2-2.75 2.98-2.97.36-.08.76-.18.89-.23.53-.21 2.8.13 3.6.54Zm18.53.15c1.11.47 1.55 1.21 1.55 2.64 0 2.3-1.33 3.23-4.6 3.26l-2.12.02-.06-3.12-.07-3.12h2.26c1.39 0 2.55.12 3.03.32ZM16.56 24.4l-1.23.88v3.47l-.01 3.48h2.83v-4.36c0-2.4-.08-4.36-.18-4.35-.1 0-.73.4-1.41.88Zm56.26 2.38a4.3 4.3 0 0 1 2.12 3.84c0 1.15-.1 1.48-.76 2.34-.89 1.15-2.53 2.08-3.7 2.09a4.66 4.66 0 0 1-3.5-1.95 5.08 5.08 0 0 1-.1-4.8 4.15 4.15 0 0 1 5.94-1.52Zm58.84-.06c2.72 1.77 2.97 5.23.52 7.2a4.2 4.2 0 0 1-6.86-4.2c.34-1.62.96-2.5 2.23-3.12 1.42-.7 2.9-.66 4.1.12Zm76.58-.02c1.4.82 2.2 2.24 2.2 3.92 0 1.56-.56 2.53-2.07 3.6-.84.59-1.25.71-2.36.71-2.54 0-4.16-1.65-4.16-4.23.01-3.6 3.42-5.74 6.4-4Zm-17.23 1.58c1.39.73 1.84 1.45 1.86 2.98.03 2.47-1.33 3.31-5.34 3.32H185v-6.89l2.65.1c1.78.08 2.88.23 3.36.49ZM0 39.64v1.53h28.77l-.07-1.47-.07-1.47-14.31-.06L0 38.1v1.53Z" />
  </symbol>
  <symbol id="icon-long-arrow" viewBox="0 0 160 6" stroke="none">
    <path d="M159.61 3 157 .39 154.39 3 157 5.61 159.61 3ZM0 3.45h157v-.9H0v.9Z" />
  </symbol>
  <symbol id="icon-note" viewBox="0 0 34 34" fill="none">
    <path stroke-linecap="round" stroke-linejoin="round" stroke-width="1.5"
      d="m30.69 14.79-1.4 5.92c-1.18 5.12-3.53 7.18-7.95 6.76-.71-.06-1.48-.18-2.3-.38l-2.38-.57c-5.9-1.4-7.73-4.32-6.35-10.24l1.4-5.94c.28-1.2.62-2.25 1.04-3.12 1.66-3.42 4.48-4.34 9.2-3.23l2.38.56c5.93 1.39 7.74 4.32 6.36 10.24Z" />
    <path stroke-linecap="round" stroke-linejoin="round" stroke-width="1.5"
      d="M21.34 27.47c-.88.6-1.99 1.09-3.33 1.53l-2.24.74c-5.63 1.8-8.59.3-10.41-5.33l-1.82-5.6c-1.81-5.62-.3-8.6 5.32-10.4l2.23-.75a13.6 13.6 0 0 1 1.66-.43c-.42.86-.76 1.9-1.05 3.11l-1.39 5.94c-1.38 5.92.44 8.84 6.35 10.24l2.38.57c.82.2 1.59.32 2.3.38ZM17.9 12.08l6.88 1.75m-8.26 3.74 4.1 1.04" />
  </symbol>
  <symbol id="icon-open-quote" viewBox="0 0 27 17" stroke="none">
    <path
      d="M2.31 15.29A6.27 6.27 0 0 1 0 10.09c0-4.21 3.59-8 8.8-9.86l1.3 1.66c-4.86 2.17-5.82 5-6.2 6.77a6.27 6.27 0 0 1 2.82-.37c2.63.2 4.7 1.98 4.7 4.2 0 1.12-.53 2.2-1.49 2.98a5.7 5.7 0 0 1-3.61 1.24 6.4 6.4 0 0 1-2.18-.38 5.8 5.8 0 0 1-1.83-1.04Zm14.6 0a6.27 6.27 0 0 1-2.32-5.2c0-4.21 3.59-8 8.8-9.86l1.3 1.66c-4.86 2.17-5.81 5-6.2 6.77a6.3 6.3 0 0 1 2.82-.37c2.63.2 4.7 1.98 4.7 4.2 0 1.12-.53 2.2-1.49 2.98a5.7 5.7 0 0 1-3.6 1.24c-.76 0-1.5-.13-2.19-.38a5.8 5.8 0 0 1-1.83-1.04Z" />
  </symbol>
  <symbol id="icon-task" viewBox="0 0 34 34" fill="none">
    <path stroke-linecap="round" stroke-linejoin="round" stroke-width="1.5" d="M17.52 12.58h7.44m-15.92 0 1.06 1.06 3.19-3.18m4.23 12.04h7.44m-15.92 0 1.06 1.06 3.19-3.19" />
    <path stroke-linecap="round" stroke-linejoin="round" stroke-width="1.5"
      d="M12.75 31.17h8.5c7.08 0 9.92-2.84 9.92-9.92v-8.5c0-7.08-2.84-9.92-9.92-9.92h-8.5c-7.08 0-9.92 2.84-9.92 9.92v8.5c0 7.08 2.84 9.92 9.92 9.92Z" />
  </symbol>
  <symbol id="icon-video" viewBox="0 0 53 53" fill="none">
    <path stroke-linecap="round" stroke-linejoin="round" stroke-width="3.31"
      d="M27.67 45.1H13.71c-6.98 0-9.3-4.64-9.3-9.3V17.2c0-6.97 2.32-9.3 9.3-9.3h13.96c6.98 0 9.3 2.32 9.3 9.3v18.6c0 6.98-2.34 9.3-9.3 9.3Zm15.43-7.34-6.13-4.3V19.52l6.14-4.3c3-2.1 5.47-.82 5.47 2.87V34.9c0 3.7-2.47 4.97-5.47 2.85Z" />
    <path stroke-linecap="round" stroke-linejoin="round" stroke-width="3.31" d="M25.4 24.3a3.31 3.31 0 1 0 0-6.63 3.31 3.31 0 0 0 0 6.62Z" />
  </symbol>
</svg>
